ground reactions
version=1
nRows=44
nColumns=19
inDegrees=no
endheader
time	ground_force_l_vx	ground_force_l_vy	ground_force_l_vz	ground_force_l_px	ground_force_l_py	ground_force_l_pz	ground_torque_l_x	ground_torque_l_y	ground_torque_l_z	ground_force_r_vx	ground_force_r_vy	ground_force_r_vz	ground_force_r_px	ground_force_r_py	ground_force_r_pz	ground_torque_r_x	ground_torque_r_y	ground_torque_r_z
5.095833	-69.093236	742.604799	47.091007	1.021057	0.000000	-0.545030	0.000000	4.186712	0.000000	0.000014	0.000165	-0.000009	0.000004	0.000000	-0.000002	0.000000	-0.000001	0.000000
5.096875	-68.437733	740.089649	47.020181	1.020118	0.000000	-0.544982	0.000000	4.175046	0.000000	0.000012	0.000138	-0.000007	0.000005	0.000000	-0.000002	0.000000	-0.000001	0.000000
5.097917	-67.781031	737.590908	46.943040	1.019181	0.000000	-0.544934	0.000000	4.161641	0.000000	0.000010	0.000116	-0.000006	0.000005	0.000000	-0.000002	0.000000	-0.000001	0.000000
5.098958	-67.122589	735.110677	46.858996	1.018246	0.000000	-0.544885	0.000000	4.146476	0.000000	0.000008	0.000097	-0.000005	0.000005	0.000000	-0.000002	0.000000	-0.000001	0.000000
5.100000	-66.461878	732.650903	46.767446	1.017313	0.000000	-0.544836	0.000000	4.129539	0.000000	0.000007	0.000081	-0.000004	0.000004	0.000000	-0.000001	0.000000	-0.000000	0.000000
5.101042	-65.798383	730.213374	46.667774	1.016381	0.000000	-0.544787	0.000000	4.110829	0.000000	0.000006	0.000068	-0.000004	0.000003	0.000000	-0.000001	0.000000	-0.000000	0.000000
5.102083	-65.131613	727.799714	46.559365	1.015448	0.000000	-0.544736	0.000000	4.090356	0.000000	0.000005	0.000058	-0.000003	0.000002	0.000000	-0.000000	0.000000	-0.000000	0.000000
5.103125	-64.461104	725.411383	46.441609	1.014516	0.000000	-0.544685	0.000000	4.068140	0.000000	0.000004	0.000048	-0.000003	0.000001	0.000000	-0.000000	0.000000	-0.000000	0.000000
5.104167	-63.786430	723.049678	46.313912	1.013582	0.000000	-0.544633	0.000000	4.044210	0.000000	0.000003	0.000041	-0.000002	0.000000	-0.000000	0.000000	0.000000	-0.000000	0.000000
5.105208	-63.107205	720.715726	46.175709	1.012645	0.000000	-0.544580	0.000000	4.018603	0.000000	0.000003	0.000034	-0.000002	-0.000001	-0.000000	0.000000	0.000000	-0.000000	0.000000
5.106250	-62.423091	718.410493	46.026471	1.011706	0.000000	-0.544525	0.000000	3.991367	0.000000	0.000002	0.000028	-0.000002	-0.000001	-0.000000	0.000001	0.000000	-0.000000	0.000000
5.107292	-61.733807	716.134782	45.865716	1.010763	0.000000	-0.544469	0.000000	3.962558	0.000000	0.000002	0.000024	-0.000001	-0.000001	-0.000000	0.000001	0.000000	-0.000000	0.000000
5.108333	-61.039127	713.889235	45.693020	1.009816	0.000000	-0.544412	0.000000	3.932238	0.000000	0.000001	0.000020	-0.000001	-0.000001	-0.000000	0.000001	0.000000	-0.000000	0.000000
5.109375	-60.338893	711.674340	45.508025	1.008865	0.000000	-0.544353	0.000000	3.900476	0.000000	0.000001	0.000016	-0.000001	-0.000001	-0.000000	0.000000	0.000000	-0.000000	0.000000
5.110417	-59.633011	709.490432	45.310449	1.007908	0.000000	-0.544293	0.000000	3.867348	0.000000	0.000001	0.000013	-0.000001	-0.000001	-0.000000	0.000000	0.000000	-0.000000	0.000000
5.111458	-58.921462	707.337697	45.100090	1.006946	0.000000	-0.544231	0.000000	3.832933	0.000000	0.000001	0.000011	-0.000001	-0.000001	-0.000000	0.000000	0.000000	-0.000000	0.000000
5.112500	-58.204294	705.216183	44.876840	1.005977	0.000000	-0.544168	0.000000	3.797318	0.000000	0.000001	0.000009	-0.000000	-0.000001	-0.000000	0.000000	0.000000	-0.000000	0.000000
5.113542	-57.481635	703.125798	44.640685	1.005003	0.000000	-0.544103	0.000000	3.760589	0.000000	0.000001	0.000007	-0.000000	-0.000000	-0.000000	0.000000	0.000000	-0.000000	0.000000
5.114583	-56.753682	701.066321	44.391708	1.004023	0.000000	-0.544037	0.000000	3.722837	0.000000	0.000000	0.000006	-0.000000	-0.000000	0.000000	-0.000000	0.000000	-0.000000	0.000000
5.115625	-56.020707	699.037404	44.130100	1.003036	0.000000	-0.543970	0.000000	3.684155	0.000000	0.000000	0.000005	-0.000000	0.000000	0.000000	-0.000000	0.000000	-0.000000	0.000000
5.116667	-55.283052	697.038582	43.856153	1.002044	0.000000	-0.543901	0.000000	3.644635	0.000000	0.000000	0.000004	-0.000000	0.000000	0.000000	-0.000000	0.000000	-0.000000	0.000000
5.117708	-54.541126	695.069278	43.570264	1.001045	0.000000	-0.543832	0.000000	3.604371	0.000000	0.000000	0.000003	-0.000000	0.000000	0.000000	-0.000000	0.000000	-0.000000	0.000000
5.118750	-53.795403	693.128808	43.272932	1.000041	0.000000	-0.543761	0.000000	3.563454	0.000000	0.000000	0.000003	-0.000000	0.000000	0.000000	-0.000000	0.000000	-0.000000	0.000000
5.119792	-53.046415	691.216392	42.964760	0.999032	0.000000	-0.543690	0.000000	3.521975	0.000000	0.000000	0.000002	-0.000000	0.000000	0.000000	-0.000000	0.000000	-0.000000	0.000000
5.120833	-52.294748	689.331158	42.646442	0.998017	0.000000	-0.543618	0.000000	3.480022	0.000000	0.000000	0.000002	-0.000000	0.000000	0.000000	-0.000000	0.000000	-0.000000	0.000000
5.121875	-51.541037	687.472152	42.318766	0.996998	0.000000	-0.543546	0.000000	3.437681	0.000000	0.000000	0.000002	-0.000000	0.000000	0.000000	-0.000000	0.000000	-0.000000	0.000000
5.122917	-50.785959	685.638343	41.982601	0.995974	0.000000	-0.543474	0.000000	3.395034	0.000000	0.000000	0.000001	-0.000000	0.000000	0.000000	-0.000000	0.000000	-0.000000	0.000000
5.123958	-50.030226	683.828636	41.638894	0.994947	0.000000	-0.543402	0.000000	3.352157	0.000000	0.000000	0.000001	0.000000	0.000000	0.000000	-0.000000	0.000000	-0.000000	0.000000
5.125000	-49.274578	682.041877	41.288657	0.993916	0.000000	-0.543330	0.000000	3.309126	0.000000	0.000000	0.000001	0.000000	0.000000	-0.000000	0.000000	0.000000	-0.000000	0.000000
5.126042	-48.519781	680.276865	40.932963	0.992882	0.000000	-0.543258	0.000000	3.266008	0.000000	0.000000	0.000001	0.000000	-0.000000	-0.000000	0.000000	0.000000	-0.000000	0.000000
5.127083	-47.766615	678.532360	40.572929	0.991845	0.000000	-0.543187	0.000000	3.222868	0.000000	0.000000	0.000001	0.000000	-0.000000	-0.000000	0.000000	0.000000	-0.000000	0.000000
5.128125	-47.015869	676.807092	40.209714	0.990806	0.000000	-0.543116	0.000000	3.179765	0.000000	0.000000	0.000001	0.000000	-0.000000	-0.000000	0.000000	0.000000	-0.000000	0.000000
5.129167	-46.268340	675.099775	39.844501	0.989764	0.000000	-0.543046	0.000000	3.136753	0.000000	0.000000	0.000001	0.000000	-0.000000	-0.000000	0.000000	0.000000	-0.000000	0.000000
5.130208	-45.524821	673.409114	39.478491	0.988722	0.000000	-0.542976	0.000000	3.093881	0.000000	0.000000	0.000000	0.000000	-0.000000	-0.000000	0.000000	0.000000	-0.000000	0.000000
5.131250	-44.786099	671.733817	39.112894	0.987677	0.000000	-0.542907	0.000000	3.051195	0.000000	0.000000	0.000000	0.000000	-0.000000	-0.000000	0.000000	0.000000	-0.000000	0.000000
5.132292	-44.052953	670.072606	38.748914	0.986632	0.000000	-0.542840	0.000000	3.008733	0.000000	0.000000	0.000000	0.000000	-0.000000	-0.000000	0.000000	0.000000	-0.000000	0.000000
5.133333	-43.326143	668.424228	38.387745	0.985587	0.000000	-0.542773	0.000000	2.966532	0.000000	0.000000	0.000000	0.000000	-0.000000	-0.000000	0.000000	0.000000	-0.000000	0.000000
5.134375	-42.606412	666.787462	38.030562	0.984541	0.000000	-0.542707	0.000000	2.924623	0.000000	0.000000	0.000000	0.000000	-0.000000	-0.000000	0.000000	0.000000	-0.000000	0.000000
5.135417	-41.894481	665.161134	37.678507	0.983495	0.000000	-0.542643	0.000000	2.883035	0.000000	0.000000	0.000000	0.000000	-0.000000	-0.000000	0.000000	0.000000	-0.000000	0.000000
5.136458	-41.191043	663.544125	37.332689	0.982449	0.000000	-0.542580	0.000000	2.841794	0.000000	0.000000	0.000000	0.000000	-0.000000	0.000000	-0.000000	0.000000	-0.000000	0.000000
5.137500	-40.496763	661.935379	36.994176	0.981405	0.000000	-0.542518	0.000000	2.800923	0.000000	0.000000	0.000000	0.000000	0.000000	0.000000	-0.000000	0.000000	-0.000000	0.000000
5.138542	-39.812275	660.333911	36.663987	0.980361	0.000000	-0.542457	0.000000	2.760442	0.000000	0.000000	0.000000	0.000000	0.000000	0.000000	-0.000000	0.000000	-0.000000	0.000000
5.139583	-39.138175	658.738817	36.343090	0.979319	0.000000	-0.542398	0.000000	2.720373	0.000000	0.000000	0.000000	0.000000	0.000000	0.000000	-0.000000	0.000000	-0.000000	0.000000
5.140625	-38.475026	657.149282	36.032396	0.978279	0.000000	-0.542341	0.000000	2.680735	0.000000	0.000000	0.000000	0.000000	0.000000	0.000000	-0.000000	0.000000	-0.000000	0.000000
